<svg width="80" height="60" viewBox="0 0 80 60" fill="none" xmlns="http://www.w3.org/2000/svg">
<rect width="80" height="60" rx="4" fill="#E94B4B"/>
<path d="M49 27H35.5V22.5C35.5 20.019 37.519 18 40 18C42.481 18 44.5 20.019 44.5 22.5H47.5C47.5 18.3645 44.1355 15 40 15C35.8645 15 32.5 18.3645 32.5 22.5V27H31C30.2044 27 29.4413 27.3161 28.8787 27.8787C28.3161 28.4413 28 29.2044 28 30V42C28 42.7956 28.3161 43.5587 28.8787 44.1213C29.4413 44.6839 30.2044 45 31 45H49C49.7956 45 50.5587 44.6839 51.1213 44.1213C51.6839 43.5587 52 42.7956 52 42V30C52 29.2044 51.6839 28.4413 51.1213 27.8787C50.5587 27.3161 49.7956 27 49 27ZM37.0915 35.2485C37.2759 34.5426 37.7109 33.9281 38.3153 33.5195C38.9197 33.111 39.6522 32.9364 40.3759 33.0285C41.0996 33.1205 41.7651 33.4729 42.248 34.0197C42.7309 34.5665 42.9982 35.2705 43 36C42.9991 36.5246 42.86 37.0397 42.5967 37.4935C42.3334 37.9472 41.9551 38.3235 41.5 38.5845V42H38.5V38.5845C37.9324 38.2593 37.4873 37.7568 37.2328 37.1542C36.9784 36.5515 36.9287 35.8821 37.0915 35.2485Z" fill="white"/>
</svg>
