<svg width="80" height="60" viewBox="0 0 80 60" fill="none" xmlns="http://www.w3.org/2000/svg">
<rect width="80" height="60" rx="4" fill="#E94B4B"/>
<path d="M26.5 23.2665C25.8099 23.707 25.2419 24.3144 24.8486 25.0325C24.4554 25.7506 24.2495 26.5563 24.25 27.375V36.375C24.25 40.725 27.775 44.25 32.125 44.25H45.625C47.35 44.25 48.8665 43.353 49.7335 42H32.125C30.6332 42 29.2024 41.4074 28.1475 40.3525C27.0926 39.2976 26.5 37.8668 26.5 36.375V23.2665ZM28 24.165V35.625C27.9999 36.8702 28.4763 38.0682 29.3315 38.9733C30.1867 39.8785 31.3558 40.422 32.599 40.4925L32.875 40.5H50.125C51.3702 40.5001 52.5682 40.0237 53.4733 39.1685C54.3785 38.3133 54.922 37.1442 54.9925 35.901L55 35.625V24.165L42.025 30.996C41.8632 31.0814 41.683 31.126 41.5 31.126C41.317 31.126 41.1368 31.0814 40.975 30.996L28 24.165ZM50.125 18H32.875C31.7865 17.9999 30.7293 18.3641 29.8716 19.0344C29.014 19.7047 28.4053 20.6427 28.1425 21.699L41.5 28.728L54.8575 21.699C54.606 20.6901 54.0387 19.7879 53.2384 19.1241C52.4381 18.4603 51.4465 18.0696 50.4085 18.009L50.125 18Z" fill="white"/>
</svg>
