<svg width="80" height="60" viewBox="0 0 80 60" fill="none" xmlns="http://www.w3.org/2000/svg">
<rect width="80" height="60" rx="4" fill="#E94B4B"/>
<path d="M28.75 24.828C28.75 27.8205 31.0075 30.078 34 30.078C36.9925 30.078 39.25 27.8205 39.25 24.828C39.25 21.8355 36.9925 19.578 34 19.578C31.0075 19.578 28.75 21.8355 28.75 24.828ZM50.5 24H47.5V28.5H43V31.5H47.5V36H50.5V31.5H55V28.5H50.5V24ZM28 40.5H43V39C43 34.8645 39.6355 31.5 35.5 31.5H32.5C28.3645 31.5 25 34.8645 25 39V40.5H28Z" fill="white"/>
</svg>
